<svg class="header__logo header__logo-mobile" width="96" height="36" viewBox="0 0 96 36" fill="none" xmlns="http://www.w3.org/2000/svg"><path d="M11.114 11.7899V6.58621C11.114 4.67213 9.85494 3.63867 6.44024 3.63867C2.94335 3.63867 1.7852 4.92322 1.58345 7.00833H2.91721C3.01808 5.39992 4.11646 4.82497 6.4141 4.82497C8.83128 4.82497 9.77649 5.3235 9.77649 6.77908C9.77649 7.75431 9.40288 7.94353 6.20487 8.09637C3.96328 8.19462 1.11646 8.53668 1.11646 11.2149C1.11646 13.4529 3.33563 14.1989 5.08408 14.1989C8.42405 14.1989 9.40289 12.8597 9.85494 12.2084H9.89603C9.89603 12.9944 9.99317 13.9696 11.4652 13.9696C11.8754 13.9589 12.2835 13.9077 12.6831 13.8168V12.8597C12.429 12.8779 12.175 12.8998 11.9172 12.8998C11.3493 12.8998 11.114 12.6123 11.114 11.7899ZM9.77649 10.0432C9.77649 12.0919 7.47885 13.1254 5.51745 13.1254C3.9446 13.1254 2.56976 12.6669 2.56976 11.1167C2.56976 9.9122 3.53364 9.43186 5.24099 9.29722C8.1065 9.04978 9.16752 8.95516 9.77649 8.55124V10.0432Z" fill="white"></path><path d="M33.1312 3.63867C29.3205 3.63867 27.572 6.1459 27.572 8.91877C27.572 11.3496 28.9655 14.1989 33.1312 14.1989C36.4936 14.1989 38.059 12.4777 38.6306 10.7164H37.1773C36.6468 12.2484 35.567 13.0126 33.1312 13.0126C30.5384 13.0126 29.0216 11.3314 29.0216 9.26446H38.8809C38.8846 4.77038 35.7426 3.63867 33.1312 3.63867ZM33.2283 4.82497C35.1748 4.82497 37.0203 5.74562 37.4313 8.19463H29.0253C29.3392 5.74562 31.3827 4.82497 33.2283 4.82497Z" fill="white"></path><path d="M65.2009 12.8998C64.633 12.8998 64.3977 12.6123 64.3977 11.7899V6.58621C64.3977 4.67213 63.1386 3.63867 59.7239 3.63867C56.227 3.63867 55.0689 4.92322 54.8671 7.00833H56.2009C56.3018 5.39992 57.4001 4.82497 59.6978 4.82497C62.115 4.82497 63.0602 5.3235 63.0602 6.77908C63.0602 7.75431 62.6866 7.94353 59.4886 8.09637C57.247 8.19462 54.4001 8.53668 54.4001 11.2149C54.4001 13.4529 56.6193 14.1989 58.3678 14.1989C61.7077 14.1989 62.6903 12.8597 63.1386 12.2084H63.1797C63.1797 12.9944 63.2769 13.9696 64.7488 13.9696C65.1591 13.9592 65.5672 13.908 65.9668 13.8168V12.8597C65.7127 12.8779 65.4587 12.8998 65.2009 12.8998ZM63.0602 10.0432C63.0602 12.0919 60.7625 13.1254 58.8012 13.1254C57.2283 13.1254 55.8535 12.6669 55.8535 11.1167C55.8535 9.9122 56.8173 9.43186 58.5247 9.29722C61.3939 9.04978 62.4512 8.95516 63.0602 8.55124V10.0432Z" fill="white"></path><path d="M23.7127 0.396484V6.0987H23.6716C23.2635 5.40045 22.6685 4.82316 21.95 4.4284C21.2316 4.03363 20.4166 3.83619 19.5919 3.85712C15.8559 3.85712 14.1411 6.31704 14.1411 9.03533C14.1411 11.4152 15.5085 14.2099 19.5919 14.2099C22.0353 14.2099 23.2681 12.7871 23.6716 11.961H23.7127V13.9115H25.1362L25.1175 0.407401L23.7127 0.396484ZM19.6031 13.0382C16.6965 13.0382 15.5795 10.9749 15.5795 9.03533C15.5795 6.56085 17.3503 5.0325 19.6031 5.0325C22.5097 5.0325 23.7987 7.03755 23.7987 9.03533C23.7875 11.5753 21.9606 13.0382 19.5919 13.0382H19.6031Z" fill="white"></path><path d="M19.9726 27.7064C19.9726 25.4357 18.792 24.264 16.1656 24.264C13.3599 24.264 11.8095 25.8433 11.8095 28.2668V35.6211H9.99004V27.1824C9.99004 25.6068 8.82815 24.2713 6.35118 24.2713C3.73599 24.2713 1.83063 25.7268 1.83063 28.6052V35.6175H0V23.1614H1.82317V25.4539H1.868C2.63387 24.1403 4.00872 22.7793 6.934 22.7793C9.85928 22.7793 11.137 24.264 11.5031 25.5085C12.1196 24.264 13.9614 22.7793 16.5243 22.7793C20.1146 22.7793 21.7808 24.5515 21.7808 27.1096V35.6102H19.9651L19.9726 27.7064Z" fill="#B0BF3C"></path><path d="M35.3876 28.9145C34.5731 29.4094 33.344 29.5113 29.7089 29.8461C27.5906 30.0353 26.3465 30.654 26.3465 32.1386C26.3465 34.0818 28.0688 34.6459 30.0339 34.6459C32.496 34.6459 35.3727 33.365 35.3727 30.7995L35.3876 28.9145ZM25.1099 26.9895C25.3826 24.3804 26.8322 22.7793 31.207 22.7793C35.481 22.7793 37.0576 24.0711 37.0576 26.4655V32.9683C37.0576 33.9945 37.349 34.3584 38.0626 34.3584C38.3839 34.3584 38.7014 34.3293 39.0265 34.3111V35.5156C38.5255 35.6331 38.0135 35.7001 37.4984 35.7157C35.6529 35.7157 35.5595 34.493 35.5296 33.5105H35.4922C34.9281 34.3256 33.6989 35.9959 29.5146 35.9959C27.3291 35.9959 24.5532 35.0643 24.5532 32.2624C24.5532 28.8854 28.1174 28.5033 30.9044 28.3614C34.887 28.1431 35.3876 27.9284 35.3876 26.7093C35.3876 24.9117 34.1547 24.2676 31.1585 24.2676C28.278 24.2676 26.9032 24.9954 26.7836 26.9932L25.1099 26.9895Z" fill="#B0BF3C"></path><path d="M40.842 23.1616H42.6615V26.0109H42.7138C43.3713 24.5298 44.5818 22.7795 47.6042 22.7795C47.9675 22.7767 48.3302 22.8071 48.6876 22.8704V24.6899C48.1361 24.5969 47.5773 24.5507 47.0176 24.5516C45.0488 24.5516 42.6615 25.7234 42.6615 29.2823V35.6249H40.842V23.1616Z" fill="#B0BF3C"></path><path d="M63.5603 31.15C63.2166 32.7766 61.7409 35.9825 57.0933 35.9825C52.4457 35.9825 49.894 33.2824 49.894 29.3778C49.894 25.6407 52.2477 22.7695 57.0933 22.7695C61.4681 22.7695 63.1718 25.4296 63.4445 27.2236H61.6437C61.0796 25.0875 59.3498 24.2542 57.0933 24.2542C53.4283 24.2542 51.7097 26.5031 51.7097 29.3778C51.7097 32.4709 53.6263 34.4978 57.0933 34.4978C59.7683 34.4978 61.2739 33.0896 61.7409 31.15H63.5603Z" fill="#B0BF3C"></path><path d="M66.1943 18.373H67.9951V25.6072H68.0511C68.5966 24.2899 70.5056 22.7798 73.3301 22.7798C77.5854 22.7798 78.8631 24.934 78.8631 27.8998V35.6107H77.0436V27.605C77.0436 25.1415 75.4932 24.279 73.1881 24.279C69.6202 24.279 67.9951 26.0476 67.9951 28.875V35.6252H66.1831L66.1943 18.373Z" fill="#B0BF3C"></path><path d="M94.1879 28.4784C93.6798 25.4108 91.3598 24.2645 88.9314 24.2645C86.5927 24.2645 84.0746 25.4363 83.6674 28.4784H94.1879ZM95.6823 31.6334C94.9351 33.8386 93.0335 36.0001 88.8007 36.0001C83.5703 36.0001 81.8442 32.4376 81.8442 29.3954C81.8442 25.9202 84.0298 22.7871 88.8007 22.7871C92.0921 22.7871 95.9999 24.1699 95.9999 29.8212H83.6861C83.6861 32.4157 85.584 34.5154 88.8268 34.5154C91.8754 34.5154 93.2502 33.5329 93.8965 31.6406L95.6823 31.6334Z" fill="#B0BF3C"></path><path d="M44.7382 3.49351C44.4994 3.76125 44.2903 4.05277 44.1143 4.36322C43.94 4.67227 43.7986 4.99781 43.6921 5.33481C43.6398 5.5022 43.595 5.67323 43.5576 5.8479C43.539 5.93523 43.524 6.02621 43.5053 6.11355C43.4866 6.20088 43.4754 6.29185 43.468 6.37918C43.4288 6.72963 43.4213 7.08275 43.4455 7.43447C43.4828 8.10824 43.6591 8.76778 43.964 9.37364C44.2689 9.97951 44.6961 10.5192 45.2201 10.9606C45.4756 11.1687 45.7552 11.3471 46.0533 11.4919C46.3509 11.647 46.6654 11.7691 46.991 11.8558C47.6025 12.0183 48.2475 12.0183 48.859 11.8558C49.4813 11.6857 50.0469 11.3595 50.4991 10.9097C50.612 10.7944 50.7181 10.6729 50.8167 10.5458C50.9141 10.4162 51.0039 10.2813 51.0856 10.1418C51.1666 10.0017 51.2366 9.85568 51.2949 9.70517C51.3285 9.62876 51.3546 9.55233 51.3845 9.47228C51.4144 9.39222 51.4294 9.32672 51.448 9.25394C51.4847 9.10452 51.5085 8.95236 51.519 8.79907C51.5302 8.64522 51.5302 8.49079 51.519 8.33693C51.4883 8.01786 51.4011 7.70637 51.2612 7.41628C51.1197 7.11486 50.9264 6.83919 50.6896 6.60116C50.4456 6.355 50.1616 6.14967 49.849 5.99345C49.6885 5.91531 49.5224 5.84843 49.3521 5.79332C49.182 5.7421 49.0066 5.70915 48.8291 5.69506C48.6478 5.67691 48.465 5.67691 48.2836 5.69506C48.0969 5.71894 47.913 5.76038 47.7345 5.81879C47.3583 5.94586 47.0135 6.14786 46.722 6.41193C46.4052 6.695 46.151 7.03798 45.9748 7.41992C46.0049 6.97437 46.1418 6.5419 46.3746 6.15721C46.4955 5.95627 46.6397 5.76947 46.8042 5.60045C47.3271 5.07014 48.018 4.72662 48.7656 4.62521C49.0245 4.59185 49.2862 4.58575 49.5464 4.60702C49.799 4.62915 50.049 4.67299 50.2936 4.73803C50.7981 4.87513 51.2737 5.09812 51.6984 5.39668C52.078 5.66703 52.4131 5.99221 52.6921 6.36099L51.7469 0.946252C51.7405 0.905471 51.7305 0.865303 51.717 0.826172L51.2874 0.851636C50.446 0.913128 49.612 1.04832 48.7955 1.25556C48.0063 1.4502 47.2446 1.73862 46.5277 2.11435C45.852 2.46711 45.2461 2.9341 44.7382 3.49351Z" fill="#B0BF3C"></path><path d="M46.8525 16.9829V18.2857C46.8523 18.4692 46.7836 18.6465 46.6592 18.7844C46.5348 18.9223 46.3632 19.0115 46.1763 19.0353L43.1875 19.552C43.1303 19.5584 43.078 19.5864 43.0417 19.6299C43.0054 19.6734 42.988 19.7291 42.9933 19.7849C42.9911 19.8165 42.9958 19.8482 43.0072 19.8779C43.0187 19.9076 43.0365 19.9345 43.0595 19.9569C43.0825 19.9793 43.1101 19.9967 43.1406 20.0078C43.1711 20.0189 43.2036 20.0236 43.2361 20.0214H51.6682C51.7007 20.0236 51.7332 20.0189 51.7637 20.0078C51.7942 19.9967 51.8218 19.9793 51.8448 19.9569C51.8679 19.9345 51.8857 19.9076 51.8971 19.8779C51.9085 19.8482 51.9133 19.8165 51.9111 19.7849C51.9016 19.7332 51.8789 19.6847 51.8449 19.644C51.8109 19.6032 51.7668 19.5716 51.7168 19.552L48.7803 19.0353C48.5934 19.0115 48.4218 18.9223 48.2974 18.7844C48.173 18.6465 48.1043 18.4692 48.1041 18.2857V16.8556V14.876C49.2212 14.7663 50.2936 14.3914 51.2274 13.7843C51.1041 13.8316 50.9771 13.8789 50.8538 13.9189C49.7946 14.2572 48.659 14.2975 47.5773 14.0354C47.0597 13.9105 46.5583 13.7286 46.0829 13.4932C45.6047 13.2554 45.1571 12.9635 44.7492 12.6235C43.9399 11.9448 43.3009 11.0946 42.8812 10.1381C42.6738 9.67041 42.5185 9.18243 42.4179 8.68252C42.3197 8.18863 42.2734 7.6863 42.2797 7.18328C42.2853 6.68799 42.3404 6.19441 42.4441 5.7095C42.5431 5.22591 42.6907 4.75299 42.8849 4.29759C43.0845 3.83813 43.3351 3.4013 43.6321 2.99486C43.9211 2.58768 44.2571 2.21407 44.6333 1.88134C45.3632 1.24669 46.21 0.752754 47.129 0.425769C47.6437 0.240524 48.1736 0.0980912 48.7131 8.34635e-06H42.7355C42.5421 -0.000847554 42.3545 0.064149 42.2051 0.183754C42.0557 0.303359 41.9539 0.47006 41.9173 0.655024L40.7965 7.03771C40.4903 8.71112 40.8467 10.4354 41.794 11.8629C42.3563 12.6929 43.1027 13.3893 43.9782 13.9007C44.8538 14.4121 45.836 14.7255 46.8525 14.8178" fill="white"></path></svg>
