<svg class="header__logo header__logo-desktop" width="293" height="38" viewBox="0 0 293 38" fill="none" xmlns="http://www.w3.org/2000/svg"><g clip-path="url(#clip0_5107:80953)"><path d="M17.2716 24.2748V15.6028C17.2716 12.4282 15.0994 10.6875 9.19605 10.6875C3.15766 10.6875 1.15424 12.8039 0.754682 16.3013H3.06199C3.23082 13.624 5.13294 12.6663 9.10039 12.6663C13.2704 12.6663 14.9362 13.497 14.9362 15.9203C14.9362 17.5446 14.289 17.8674 8.74585 18.1214C4.87408 18.2801 -0.0444336 18.8515 -0.0444336 23.3171C-0.0444336 27.0526 3.79358 28.296 6.80997 28.296C12.5782 28.296 14.2721 26.0632 15.0544 24.9785H15.1613C15.1613 26.2854 15.3301 27.9097 17.8738 27.9097C18.5826 27.8912 19.2877 27.8061 19.9785 27.6558V26.0684C19.5396 26.1002 19.095 26.1319 18.656 26.1319C17.6768 26.1266 17.2716 25.6558 17.2716 24.2748ZM14.9643 21.3753C14.9643 24.788 10.9913 26.5076 7.60346 26.5076C4.88533 26.5076 2.53863 25.7457 2.53863 23.1584C2.53863 21.1531 4.22691 20.3542 7.15325 20.1002C12.1055 19.6822 13.9401 19.5235 14.9925 18.8515L14.9643 21.3753Z" fill="white"></path><path d="M55.3023 10.6875C48.718 10.6875 45.7017 14.8674 45.7017 19.4917C45.7017 23.5446 48.1103 28.296 55.3023 28.296C61.1325 28.296 63.8168 25.423 64.796 22.4759H62.2861C61.3745 25.0261 59.5061 26.3013 55.3023 26.3013C50.8002 26.3013 48.2116 23.497 48.2116 20.0526H65.2462C65.2462 12.5711 59.81 10.6875 55.3023 10.6875ZM55.4711 12.6663C58.8477 12.6663 62.016 14.1954 62.7307 18.2801H48.2116C48.7518 14.1954 52.2465 12.6663 55.4711 12.6663Z" fill="white"></path><path d="M110.7 26.1267C109.715 26.1267 109.31 25.6452 109.31 24.2748V15.6028C109.31 12.4282 107.138 10.6875 101.234 10.6875C95.1959 10.6875 93.1925 12.8039 92.8211 16.3013H95.1284C95.2972 13.624 97.1993 12.6663 101.167 12.6663C105.337 12.6663 107.003 13.497 107.003 15.9203C107.003 17.5446 106.355 17.8674 100.812 18.1214C96.9405 18.2801 92.022 18.8515 92.022 23.3171C92.022 27.0526 95.8544 28.296 98.8764 28.296C104.645 28.296 106.339 26.0632 107.121 24.9785H107.188C107.188 26.2854 107.357 27.9097 109.901 27.9097C110.61 27.8909 111.315 27.8058 112.006 27.6558V26.0684C111.578 26.0949 111.139 26.1267 110.7 26.1267ZM107.003 21.3647C107.003 24.7774 103.03 26.497 99.6417 26.497C96.9236 26.497 94.5488 25.7351 94.5488 23.1478C94.5488 21.1425 96.237 20.3436 99.1634 20.0896C104.116 19.6716 105.95 19.5129 107.003 18.8409V21.3647Z" fill="white"></path><path d="M39.0329 5.28125V14.8051H38.9653C38.2615 13.638 37.2337 12.6726 35.9918 12.0119C34.7499 11.3512 33.3405 11.02 31.914 11.0537C25.4591 11.0537 22.499 15.149 22.499 19.6834C22.499 23.6516 24.8626 28.313 31.914 28.313C36.1347 28.313 38.2675 25.9373 38.9653 24.5617H39.0329L39.061 27.8104H41.5259L41.4921 5.29712L39.0329 5.28125ZM31.914 26.3553C26.8885 26.3553 24.9639 22.9162 24.9639 19.6675C24.9639 15.5405 28.0197 12.9744 31.914 12.9744C36.9338 12.9744 39.1623 16.3183 39.1623 19.6675C39.1623 23.9162 35.9827 26.3553 31.914 26.3553Z" fill="white"></path><path d="M161.664 16.0255C161.664 12.2425 159.621 10.2848 155.085 10.2848C150.24 10.2848 147.561 12.9303 147.561 16.9409V29.2054H144.421V15.1525C144.421 12.507 142.417 10.2848 138.135 10.2848C133.633 10.2848 130.324 12.7186 130.324 17.5123V29.2054H127.178V8.44351H130.324V12.2689H130.402C131.725 10.0784 134.105 7.80859 139.153 7.80859C144.201 7.80859 146.418 10.2848 147.032 12.3589C148.09 10.2848 151.275 7.80859 155.698 7.80859C161.889 7.80859 164.781 10.761 164.781 15.0308V29.2054H161.647L161.664 16.0255Z" fill="#B0BF3C"></path><path d="M188.287 18.0361C186.88 18.8668 184.764 19.0308 178.478 19.5917C174.821 19.9038 172.699 20.9409 172.699 23.4171C172.699 26.6552 175.67 27.597 179.069 27.597C183.318 27.597 188.287 25.4805 188.287 21.179V18.0361ZM170.532 14.8298C171.005 10.4753 173.509 7.80859 181.067 7.80859C188.451 7.80859 191.169 9.96203 191.169 13.9567V24.8192C191.169 26.5282 191.681 27.1366 192.913 27.1366C193.476 27.1366 194.011 27.0837 194.573 27.0573V29.0414C193.708 29.2349 192.823 29.3448 191.934 29.3694C188.749 29.3694 188.586 27.3377 188.557 25.6975H188.473C187.5 27.0573 185.378 29.8403 178.158 29.8403C174.382 29.8403 169.587 28.2901 169.587 23.6181C169.587 17.9832 175.738 17.3483 180.578 17.1102C187.46 16.7451 188.31 16.3853 188.31 14.3589C188.31 11.3589 186.183 10.2848 180.994 10.2848C176.019 10.2848 173.644 11.5176 173.436 14.8298H170.532Z" fill="#B0BF3C"></path><path d="M197.714 8.44498H200.871V13.2069H200.961C202.086 10.7413 204.18 7.82064 209.402 7.82064C210.031 7.81571 210.658 7.86709 211.276 7.97408V11.0111C210.324 10.8507 209.357 10.7711 208.389 10.773C204.985 10.773 200.865 12.7307 200.865 18.6407V29.2228H197.725L197.714 8.44498Z" fill="#B0BF3C"></path><path d="M236.949 21.7821C236.358 24.4964 233.809 29.8403 225.784 29.8403C217.759 29.8403 213.347 25.3377 213.347 18.8298C213.347 12.597 217.416 7.80859 225.784 7.80859C233.342 7.80859 236.28 12.2425 236.78 15.216H233.646C232.672 11.6552 229.707 10.2636 225.767 10.2636C219.442 10.3112 216.482 14.0149 216.482 18.8298C216.482 23.9832 219.796 27.3641 225.784 27.3641C230.404 27.3641 233.004 25.0149 233.809 21.7821H236.949Z" fill="#B0BF3C"></path><path d="M241.502 0.460938H244.631V12.5244H244.727C245.672 10.3339 248.97 7.81014 253.849 7.81014C261.199 7.81014 263.416 11.4027 263.416 16.3498V29.207H260.276V15.8313C260.276 11.7255 257.597 10.2863 253.618 10.2863C247.428 10.2863 244.614 13.2334 244.614 17.9477V29.207H241.502V0.460938Z" fill="#B0BF3C"></path><path d="M289.86 17.3121C288.976 12.201 284.975 10.3121 280.783 10.3121C276.736 10.3121 272.414 12.2698 271.689 17.3386L289.86 17.3121ZM292.454 22.6031C291.177 26.2751 287.873 29.8677 280.569 29.8677C271.525 29.8677 268.548 23.9312 268.548 18.8571C268.548 13.0634 272.324 7.83594 280.569 7.83594C286.253 7.83594 293 10.1428 293 19.5661H271.689C271.689 23.8941 274.969 27.3915 280.569 27.3915C285.831 27.3915 288.205 25.7566 289.325 22.6296L292.454 22.6031Z" fill="#B0BF3C"></path><path d="M120.801 0H119.372V37.9947H120.801V0Z" fill="#B0BF3C"></path><path d="M75.3757 10.4614C74.9463 10.9014 74.5689 11.384 74.2502 11.9005C73.9468 12.4129 73.7016 12.9538 73.5186 13.5143C73.4286 13.8 73.3498 14.0857 73.2879 14.3767C73.2541 14.5196 73.2316 14.6677 73.1978 14.8159C73.1641 14.964 73.1472 15.1122 73.1359 15.2603C73.0666 15.8436 73.0534 16.4315 73.0965 17.0169C73.1591 18.1402 73.4625 19.2399 73.9886 20.2501C74.5147 21.2603 75.2526 22.16 76.1579 22.8952C76.6006 23.2421 77.084 23.5404 77.5986 23.7841C78.1169 24.0326 78.6621 24.2277 79.225 24.3661C80.2845 24.6359 81.4013 24.6359 82.4608 24.3661C83.5303 24.0776 84.5005 23.5303 85.2746 22.7788C85.4757 22.5912 85.6637 22.3915 85.8374 22.181C86.0006 21.964 86.1581 21.7418 86.2988 21.509C86.4377 21.2734 86.5599 21.0295 86.6646 20.7788C86.7209 20.6519 86.7659 20.5249 86.8166 20.3926C86.8672 20.2603 86.8953 20.1492 86.9235 20.0275C86.9898 19.7795 87.0313 19.5262 87.0473 19.2709C87.0669 19.012 87.0669 18.7521 87.0473 18.4931C86.9928 17.9633 86.8425 17.4462 86.6027 16.964C86.3587 16.4616 86.0257 16.0018 85.6179 15.6042C85.1966 15.192 84.7037 14.8502 84.1603 14.5937C83.8861 14.4592 83.5999 14.3477 83.3049 14.2603C83.0119 14.1745 82.7101 14.1178 82.4045 14.091C82.0901 14.062 81.7735 14.062 81.4591 14.091C81.1354 14.1289 80.8167 14.1981 80.508 14.2974C79.859 14.5081 79.2645 14.8452 78.7635 15.2868C78.2248 15.7593 77.794 16.33 77.4973 16.964C77.5447 16.2167 77.7821 15.4909 78.1895 14.8476C78.3966 14.5134 78.6439 14.2027 78.9267 13.9217C79.8261 13.0389 81.0156 12.4667 82.3032 12.2974C82.7489 12.2399 83.1998 12.2275 83.6482 12.2603C84.0916 12.2965 84.5305 12.3709 84.9595 12.4825C85.8307 12.712 86.6518 13.0846 87.3849 13.5831C88.0379 14.0289 88.6164 14.5639 89.1014 15.1704L87.4131 6.17566C87.4022 6.10743 87.3852 6.04018 87.3624 5.97461L86.6196 6.01694C85.166 6.11856 83.7251 6.34345 82.3145 6.68889C80.9435 7.01211 79.6203 7.49373 78.3752 8.12276C77.2364 8.72978 76.2209 9.52153 75.3757 10.4614Z" fill="#B0BF3C"></path><path d="M79.0059 32.9372V35.1065C79.0049 35.4124 78.8866 35.7076 78.6725 35.938C78.4585 36.1684 78.1633 36.3184 77.841 36.3605L72.6805 37.2176C72.5819 37.2295 72.4921 37.2771 72.4302 37.3502C72.3682 37.4232 72.3389 37.5161 72.3485 37.6091C72.3452 37.6614 72.3537 37.7136 72.3735 37.7625C72.3933 37.8114 72.4238 37.8558 72.4632 37.8928C72.5025 37.9298 72.5498 37.9586 72.6018 37.9771C72.6538 37.9957 72.7094 38.0037 72.7649 38.0007H87.3235C87.379 38.0037 87.4346 37.9957 87.4866 37.9771C87.5387 37.9586 87.5859 37.9298 87.6252 37.8928C87.6646 37.8558 87.6951 37.8114 87.7149 37.7625C87.7347 37.7136 87.7432 37.6614 87.7399 37.6091C87.7233 37.5232 87.6842 37.4424 87.6263 37.3741C87.5684 37.3058 87.4933 37.252 87.4079 37.2176L82.3431 36.3605C82.0208 36.3184 81.7255 36.1684 81.5115 35.938C81.2975 35.7076 81.1791 35.4124 81.1782 35.1065V32.7255V29.4239C83.1068 29.2456 84.9596 28.6262 86.575 27.6197C86.3555 27.7044 86.1361 27.7784 85.9166 27.8472C84.0864 28.4119 82.1237 28.4779 80.2552 28.0377C79.3583 27.8303 78.4898 27.5267 77.6666 27.1329C76.84 26.7386 76.0672 26.2519 75.3649 25.6832C73.967 24.5525 72.8638 23.1351 72.1403 21.5403C71.7879 20.7622 71.522 19.9519 71.3468 19.1224C71.1752 18.2998 71.0922 17.4632 71.0992 16.625C71.1125 15.7965 71.2086 14.971 71.3862 14.1594C71.5594 13.3554 71.8138 12.5688 72.1459 11.8102C72.4853 11.0464 72.9077 10.3177 73.4065 9.63559C73.9076 8.96001 74.487 8.33891 75.1341 7.78373C76.3931 6.71521 77.8583 5.88361 79.4505 5.334C80.3379 5.02721 81.2508 4.79006 82.1799 4.625H71.8476C71.5134 4.62432 71.1893 4.73336 70.9314 4.93331C70.6736 5.13327 70.498 5.41159 70.4351 5.72025L68.5217 16.3605C67.9933 19.1574 68.617 22.0385 70.2663 24.4187C71.2352 25.8063 72.5238 26.971 74.0368 27.8265C75.5497 28.682 77.2481 29.2063 79.0059 29.3605" fill="white"></path></g><defs><clipPath id="clip0_5107:80953"><rect width="293" height="38" fill="white"></rect></clipPath></defs></svg>
